<mxfile host="app.diagrams.net" agent="Mozilla/5.0 (Windows NT 10.0; Win64; x64) AppleWebKit/537.36 (KHTML, like Gecko) Chrome/135.0.0.0 Safari/537.36" version="26.2.14">
  <diagram name="PÃ¡gina-1" id="zmpCDko_dYENu1_B19SV">
    <mxGraphModel dx="786" dy="687" grid="0" gridSize="10" guides="1" tooltips="1" connect="1" arrows="1" fold="1" page="1" pageScale="1" pageWidth="827" pageHeight="1169" background="none" math="0" shadow="0">
      <root>
        <mxCell id="0" />
        <mxCell id="1" parent="0" />
        <mxCell id="nigvl5V8QXQ_m32_24J0-22" value="" style="endArrow=diamondThin;endFill=1;endSize=24;html=1;rounded=0;strokeColor=#006658;fontColor=#5C5C5C;fillColor=#21C0A5;entryX=0.5;entryY=0;entryDx=0;entryDy=0;" edge="1" parent="1" target="nigvl5V8QXQ_m32_24J0-16">
          <mxGeometry width="160" relative="1" as="geometry">
            <mxPoint x="440" y="160" as="sourcePoint" />
            <mxPoint x="656" y="197.96000000000004" as="targetPoint" />
          </mxGeometry>
        </mxCell>
        <mxCell id="nigvl5V8QXQ_m32_24J0-8" value="&lt;b&gt;&lt;font face=&quot;Verdana&quot;&gt;iPhone&lt;/font&gt;&lt;/b&gt;" style="swimlane;fontStyle=0;childLayout=stackLayout;horizontal=1;startSize=40;fillColor=none;horizontalStack=0;resizeParent=1;resizeParentMax=0;resizeLast=0;collapsible=1;marginBottom=0;whiteSpace=wrap;html=1;labelBackgroundColor=none;strokeColor=#006658;fontColor=#5C5C5C;" vertex="1" parent="1">
          <mxGeometry x="280" y="40" width="280" height="120" as="geometry" />
        </mxCell>
        <mxCell id="nigvl5V8QXQ_m32_24J0-9" value="- reprodutorMusical: ReprodutorMusical" style="text;strokeColor=none;fillColor=none;align=center;verticalAlign=top;spacingLeft=4;spacingRight=4;overflow=hidden;rotatable=0;points=[[0,0.5],[1,0.5]];portConstraint=eastwest;whiteSpace=wrap;html=1;labelBackgroundColor=none;fontColor=#5C5C5C;" vertex="1" parent="nigvl5V8QXQ_m32_24J0-8">
          <mxGeometry y="40" width="280" height="26" as="geometry" />
        </mxCell>
        <mxCell id="nigvl5V8QXQ_m32_24J0-10" value="- aparelhoTelefonico: AparelhoTelefonico" style="text;strokeColor=none;fillColor=none;align=center;verticalAlign=top;spacingLeft=4;spacingRight=4;overflow=hidden;rotatable=0;points=[[0,0.5],[1,0.5]];portConstraint=eastwest;whiteSpace=wrap;html=1;labelBackgroundColor=none;fontColor=#5C5C5C;" vertex="1" parent="nigvl5V8QXQ_m32_24J0-8">
          <mxGeometry y="66" width="280" height="26" as="geometry" />
        </mxCell>
        <mxCell id="nigvl5V8QXQ_m32_24J0-11" value="- navegadorInternet: NavegadorInternet" style="text;strokeColor=none;fillColor=none;align=center;verticalAlign=top;spacingLeft=4;spacingRight=4;overflow=hidden;rotatable=0;points=[[0,0.5],[1,0.5]];portConstraint=eastwest;whiteSpace=wrap;html=1;labelBackgroundColor=none;fontColor=#5C5C5C;" vertex="1" parent="nigvl5V8QXQ_m32_24J0-8">
          <mxGeometry y="92" width="280" height="28" as="geometry" />
        </mxCell>
        <mxCell id="nigvl5V8QXQ_m32_24J0-23" value="" style="endArrow=diamondThin;endFill=1;endSize=24;html=1;rounded=0;strokeColor=#006658;fontColor=#5C5C5C;fillColor=#21C0A5;entryX=0.595;entryY=-0.033;entryDx=0;entryDy=0;entryPerimeter=0;" edge="1" parent="nigvl5V8QXQ_m32_24J0-8" target="nigvl5V8QXQ_m32_24J0-4">
          <mxGeometry width="160" relative="1" as="geometry">
            <mxPoint x="130" y="120" as="sourcePoint" />
            <mxPoint x="310" y="119" as="targetPoint" />
          </mxGeometry>
        </mxCell>
        <mxCell id="nigvl5V8QXQ_m32_24J0-12" value="&lt;b&gt;AparelhoTelefonico&lt;/b&gt;" style="swimlane;fontStyle=0;childLayout=stackLayout;horizontal=1;startSize=40;fillColor=none;horizontalStack=0;resizeParent=1;resizeParentMax=0;resizeLast=0;collapsible=1;marginBottom=0;whiteSpace=wrap;html=1;labelBackgroundColor=none;strokeColor=#006658;fontColor=#5C5C5C;" vertex="1" parent="1">
          <mxGeometry x="320" y="280" width="200" height="120" as="geometry" />
        </mxCell>
        <mxCell id="nigvl5V8QXQ_m32_24J0-13" value="+ ligar(numero: String)" style="text;strokeColor=none;fillColor=none;align=left;verticalAlign=top;spacingLeft=4;spacingRight=4;overflow=hidden;rotatable=0;points=[[0,0.5],[1,0.5]];portConstraint=eastwest;whiteSpace=wrap;html=1;labelBackgroundColor=none;fontColor=#5C5C5C;" vertex="1" parent="nigvl5V8QXQ_m32_24J0-12">
          <mxGeometry y="40" width="200" height="26" as="geometry" />
        </mxCell>
        <mxCell id="nigvl5V8QXQ_m32_24J0-14" value="+ atender()" style="text;strokeColor=none;fillColor=none;align=left;verticalAlign=top;spacingLeft=4;spacingRight=4;overflow=hidden;rotatable=0;points=[[0,0.5],[1,0.5]];portConstraint=eastwest;whiteSpace=wrap;html=1;labelBackgroundColor=none;fontColor=#5C5C5C;" vertex="1" parent="nigvl5V8QXQ_m32_24J0-12">
          <mxGeometry y="66" width="200" height="26" as="geometry" />
        </mxCell>
        <mxCell id="nigvl5V8QXQ_m32_24J0-15" value="+ iniciarCorreioVoz()" style="text;strokeColor=none;fillColor=none;align=left;verticalAlign=top;spacingLeft=4;spacingRight=4;overflow=hidden;rotatable=0;points=[[0,0.5],[1,0.5]];portConstraint=eastwest;whiteSpace=wrap;html=1;labelBackgroundColor=none;fontColor=#5C5C5C;" vertex="1" parent="nigvl5V8QXQ_m32_24J0-12">
          <mxGeometry y="92" width="200" height="28" as="geometry" />
        </mxCell>
        <mxCell id="nigvl5V8QXQ_m32_24J0-16" value="&lt;b&gt;NavegadorInternet&lt;/b&gt;" style="swimlane;fontStyle=0;childLayout=stackLayout;horizontal=1;startSize=40;fillColor=none;horizontalStack=0;resizeParent=1;resizeParentMax=0;resizeLast=0;collapsible=1;marginBottom=0;whiteSpace=wrap;html=1;labelBackgroundColor=none;strokeColor=#006658;fontColor=#5C5C5C;" vertex="1" parent="1">
          <mxGeometry x="560" y="280" width="200" height="120" as="geometry" />
        </mxCell>
        <mxCell id="nigvl5V8QXQ_m32_24J0-17" value="+ exibirPagina(url: String)" style="text;strokeColor=none;fillColor=none;align=left;verticalAlign=top;spacingLeft=4;spacingRight=4;overflow=hidden;rotatable=0;points=[[0,0.5],[1,0.5]];portConstraint=eastwest;whiteSpace=wrap;html=1;labelBackgroundColor=none;fontColor=#5C5C5C;" vertex="1" parent="nigvl5V8QXQ_m32_24J0-16">
          <mxGeometry y="40" width="200" height="26" as="geometry" />
        </mxCell>
        <mxCell id="nigvl5V8QXQ_m32_24J0-18" value="+ adicionarNovaAba()" style="text;strokeColor=none;fillColor=none;align=left;verticalAlign=top;spacingLeft=4;spacingRight=4;overflow=hidden;rotatable=0;points=[[0,0.5],[1,0.5]];portConstraint=eastwest;whiteSpace=wrap;html=1;labelBackgroundColor=none;fontColor=#5C5C5C;" vertex="1" parent="nigvl5V8QXQ_m32_24J0-16">
          <mxGeometry y="66" width="200" height="26" as="geometry" />
        </mxCell>
        <mxCell id="nigvl5V8QXQ_m32_24J0-19" value="+ atualizarPagina()" style="text;strokeColor=none;fillColor=none;align=left;verticalAlign=top;spacingLeft=4;spacingRight=4;overflow=hidden;rotatable=0;points=[[0,0.5],[1,0.5]];portConstraint=eastwest;whiteSpace=wrap;html=1;labelBackgroundColor=none;fontColor=#5C5C5C;" vertex="1" parent="nigvl5V8QXQ_m32_24J0-16">
          <mxGeometry y="92" width="200" height="28" as="geometry" />
        </mxCell>
        <mxCell id="nigvl5V8QXQ_m32_24J0-4" value="&lt;b&gt;ReprodutorMusical&lt;/b&gt;" style="swimlane;fontStyle=0;childLayout=stackLayout;horizontal=1;startSize=40;fillColor=none;horizontalStack=0;resizeParent=1;resizeParentMax=0;resizeLast=0;collapsible=1;marginBottom=0;whiteSpace=wrap;html=1;labelBackgroundColor=none;strokeColor=#006658;fontColor=#5C5C5C;" vertex="1" parent="1">
          <mxGeometry x="80" y="280" width="200" height="120" as="geometry" />
        </mxCell>
        <mxCell id="nigvl5V8QXQ_m32_24J0-5" value="+ tocar()" style="text;strokeColor=none;fillColor=none;align=left;verticalAlign=top;spacingLeft=4;spacingRight=4;overflow=hidden;rotatable=0;points=[[0,0.5],[1,0.5]];portConstraint=eastwest;whiteSpace=wrap;html=1;labelBackgroundColor=none;fontColor=#5C5C5C;" vertex="1" parent="nigvl5V8QXQ_m32_24J0-4">
          <mxGeometry y="40" width="200" height="26" as="geometry" />
        </mxCell>
        <mxCell id="nigvl5V8QXQ_m32_24J0-6" value="+ pausar()" style="text;strokeColor=none;fillColor=none;align=left;verticalAlign=top;spacingLeft=4;spacingRight=4;overflow=hidden;rotatable=0;points=[[0,0.5],[1,0.5]];portConstraint=eastwest;whiteSpace=wrap;html=1;labelBackgroundColor=none;fontColor=#5C5C5C;" vertex="1" parent="nigvl5V8QXQ_m32_24J0-4">
          <mxGeometry y="66" width="200" height="26" as="geometry" />
        </mxCell>
        <mxCell id="nigvl5V8QXQ_m32_24J0-7" value="+ selecionarMusica(musica: String)" style="text;strokeColor=none;fillColor=none;align=left;verticalAlign=top;spacingLeft=4;spacingRight=4;overflow=hidden;rotatable=0;points=[[0,0.5],[1,0.5]];portConstraint=eastwest;whiteSpace=wrap;html=1;labelBackgroundColor=none;fontColor=#5C5C5C;" vertex="1" parent="nigvl5V8QXQ_m32_24J0-4">
          <mxGeometry y="92" width="200" height="28" as="geometry" />
        </mxCell>
        <mxCell id="nigvl5V8QXQ_m32_24J0-24" value="" style="endArrow=diamondThin;endFill=1;endSize=24;html=1;rounded=0;strokeColor=#006658;fontColor=#5C5C5C;fillColor=#21C0A5;entryX=0.5;entryY=0;entryDx=0;entryDy=0;" edge="1" parent="1" source="nigvl5V8QXQ_m32_24J0-11" target="nigvl5V8QXQ_m32_24J0-12">
          <mxGeometry width="160" relative="1" as="geometry">
            <mxPoint x="414" y="160" as="sourcePoint" />
            <mxPoint x="574" y="160" as="targetPoint" />
            <Array as="points" />
          </mxGeometry>
        </mxCell>
      </root>
    </mxGraphModel>
  </diagram>
</mxfile>
